# Blender v2.78 (sub 0) OBJ File: 'McGameJAm.blend'
# www.blender.org
mtllib CourDeau.mtl
o Plane.001
v 18.793995 -0.212306 30.000000
v 26.350239 -0.212306 30.000000
v 18.793995 -0.212306 10.001425
v 26.350239 -0.212306 10.001425
v 18.793995 -0.212306 10.001425
v 26.350239 -0.212306 10.001425
v 18.793995 -0.212306 -9.997150
v 26.350239 -0.212306 -9.997150
v 18.793995 -0.212306 -9.997150
v 26.350239 -0.212306 -9.997150
v 18.793995 -0.212306 -29.995724
v 26.350239 -0.212306 -29.995724
vt -0.0000 0.0000
vt 1.0000 -0.0000
vt 1.0000 1.0000
vt 0.0000 1.0000
vt -0.0000 0.0000
vt 1.0000 -0.0000
vt 1.0000 1.0000
vt 0.0000 1.0000
vt -0.0000 0.0000
vt 1.0000 -0.0000
vt 1.0000 1.0000
vt 0.0000 1.0000
vn 0.0000 1.0000 0.0000
usemtl WaterMaterial
s off
f 1/1/1 2/2/1 4/3/1 3/4/1
f 5/5/1 6/6/1 8/7/1 7/8/1
f 9/9/1 10/10/1 12/11/1 11/12/1
