# Blender v2.78 (sub 0) OBJ File: 'McGameJamBatiment.blend'
# www.blender.org
mtllib HoussePartTop.mtl
o Plane.047_Plane.074
v -2.042729 1.097282 0.135699
v 0.032423 1.101015 0.135699
v -2.042729 1.097282 -4.131307
v 0.032423 1.101015 -4.131307
v -1.000000 1.440020 0.135699
v -1.000000 1.440020 -4.131307
v -2.042729 1.134474 0.135699
v 0.032423 1.138207 0.135699
v -2.042729 1.134474 -4.131307
v 0.032423 1.138207 -4.131307
v -1.000000 1.477212 0.135699
v -1.000000 1.477212 -4.131307
v -0.000000 1.100085 0.000000
v -0.000000 1.100085 -2.000000
v 0.000000 1.000000 -2.000000
v -0.000000 1.100085 -4.000000
v 0.000000 1.000000 -4.000000
v -2.000000 1.100085 -2.000000
v -2.000000 1.000000 -2.000000
v -2.000000 1.100085 0.000000
v -2.000000 1.100085 -4.000000
v -2.000000 1.000000 -4.000000
v -2.000000 1.000000 0.000000
v -0.000000 1.000000 0.000000
v -1.000000 1.427267 0.000000
v -1.000000 1.000000 0.000000
v -1.000000 1.427267 -4.000000
v -1.000000 1.000000 -4.000000
vt -3.3359 0.0234
vt -3.3359 -0.1797
vt 0.6641 -0.1797
vt 0.6641 0.0234
vt 4.6641 -0.1797
vt 4.6641 0.0234
vt 0.6641 0.0234
vt 0.6641 0.2266
vt -3.3359 0.2266
vt -3.3359 0.0234
vt 4.6641 0.0234
vt 4.6641 0.2266
vt 0.5000 0.8750
vt 0.5000 0.0000
vt 2.5000 0.0000
vt 2.5000 0.2188
vt 0.5000 0.8750
vt 0.5000 0.0000
vt 2.5000 0.0000
vt 2.5000 0.2188
vt -1.5000 0.2188
vt -1.5000 0.0000
vt -1.5000 0.2188
vt -1.5000 0.0000
vt -12.4453 0.2422
vt 13.4453 0.2422
vt 13.4453 -1.7656
vt -12.4453 -1.7656
vt -12.4453 2.2734
vt 13.4453 2.2734
vt -12.4453 0.2422
vt -12.4453 -1.7656
vt 13.4453 -1.7656
vt 13.4453 0.2422
vt -12.4453 2.2734
vt 13.4453 2.2734
vn 1.0000 0.0000 0.0000
vn -1.0000 0.0000 0.0000
vn 0.0000 0.0000 1.0000
vn 0.0000 0.0000 -1.0000
vn -0.3120 -0.9501 0.0000
vn 0.3123 -0.9500 0.0000
vn 0.3120 0.9501 0.0000
vn -0.3123 0.9500 0.0000
usemtl Batiment_Matériel
s off
f 13/1/1 24/2/1 15/3/1 14/4/1
f 14/4/1 15/3/1 17/5/1 16/6/1
f 18/7/2 19/8/2 23/9/2 20/10/2
f 21/11/2 22/12/2 19/8/2 18/7/2
f 25/13/3 26/14/3 24/15/3 13/16/3
f 27/17/4 28/18/4 22/19/4 21/20/4
f 20/21/3 23/22/3 26/14/3 25/13/3
f 16/23/4 17/24/4 28/18/4 27/17/4
usemtl ToitHabitationMAterial
f 5/25/5 6/26/5 4/27/5 2/28/5
f 1/29/6 3/30/6 6/26/6 5/25/6
f 11/31/7 8/32/7 10/33/7 12/34/7
f 7/35/8 11/31/8 12/34/8 9/36/8
f 4/27/4 6/26/4 12/34/4 10/33/4
f 6/26/4 3/30/4 9/36/4 12/34/4
f 5/25/3 2/28/3 8/32/3 11/31/3
f 1/29/3 5/25/3 11/31/3 7/35/3
f 2/28/1 4/27/1 10/33/1 8/32/1
f 3/30/2 1/29/2 7/35/2 9/36/2
