# Blender v2.78 (sub 0) OBJ File: 'McGameJamPersonage.blend'
# www.blender.org
mtllib RouteCoin.mtl
o Plane.011_Plane.024
v -5.000000 0.000000 5.000000
v 5.000000 0.000000 5.000000
v -5.000000 0.000000 -5.000000
v 5.000000 0.000000 -5.000000
v -3.813428 0.000000 5.000000
v 3.808330 0.000000 5.000000
v 3.808330 0.000000 -5.000000
v -3.813428 0.000000 -5.000000
v -5.000000 0.000000 -3.809726
v -5.000000 0.000000 3.809467
v 5.000000 0.000000 3.809467
v 5.000000 0.000000 -3.809726
v -3.813428 0.000000 3.809467
v -3.813428 0.000000 -3.809726
v 3.808330 0.000000 3.809467
v 3.808330 0.000000 -3.809726
vt 0.6250 0.1250
vt 0.6250 0.0000
vt 0.6667 0.0000
vt 0.6667 0.1250
vt 0.6250 1.0000
vt 0.6250 0.8750
vt 0.6667 0.8750
vt 0.6667 1.0000
vt 0.6667 0.8750
vt 0.6667 0.1250
vt 0.7083 0.1250
vt 0.7083 0.8750
vt 0.3750 0.8750
vt 0.3750 0.1250
vt 0.3333 1.0000
vt 0.3333 0.8750
vt 0.3750 1.0000
vt 0.3333 0.1250
vt 0.3333 0.0000
vt 0.3750 0.0000
vt 0.7083 0.0000
vt 0.9583 0.0000
vt 0.9583 0.1250
vn 0.0000 1.0000 0.0000
usemtl RouteCoinMaterial
s off
f 16/1/1 12/2/1 4/3/1 7/4/1
f 9/5/1 14/6/1 8/7/1 3/8/1
f 14/6/1 16/1/1 7/4/1 8/7/1
f 5/9/1 6/10/1 15/11/1 13/12/1
f 13/13/1 15/14/1 16/1/1 14/6/1
f 1/15/1 5/16/1 13/13/1 10/17/1
f 10/17/1 13/13/1 14/6/1 9/5/1
f 6/18/1 2/19/1 11/20/1 15/14/1
f 15/11/1 11/21/1 12/22/1 16/23/1
